{
  "accessors": [
    {
      "bufferView": 2,
      "componentType": 5126,
      "count": 62095,
      "max": [
        932.9345092773438,
        1767.02001953125,
        1079.9019775390625
      ],
      "min": [
        -870.0927734375,
        382.8262939453125,
        -956.55517578125
      ],
      "type": "VEC3"
    },
    {
      "bufferView": 2,
      "byteOffset": 745140,
      "componentType": 5126,
      "count": 62095,
      "max": [
        1.0,
        1.0,
        1.0
      ],
      "min": [
        -1.0,
        -1.0,
        -1.0
      ],
      "type": "VEC3"
    },
    {
      "bufferView": 1,
      "componentType": 5126,
      "count": 62095,
      "max": [
        0.9981700778007507,
        0.9984545111656189
      ],
      "min": [
        0.0008202791213989258,
        0.0005233287811279297
      ],
      "type": "VEC2"
    },
    {
      "bufferView": 1,
      "byteOffset": 496760,
      "componentType": 5126,
      "count": 62095,
      "max": [
        0.9981700778007507,
        0.9984545111656189
      ],
      "min": [
        0.0008202791213989258,
        0.0005233287811279297
      ],
      "type": "VEC2"
    },
    {
      "bufferView": 0,
      "componentType": 5125,
      "count": 169890,
      "type": "SCALAR"
    },
    {
      "bufferView": 2,
      "byteOffset": 1490280,
      "componentType": 5126,
      "count": 65532,
      "max": [
        787.52978515625,
        1659.4339599609375,
        950.2750244140625
      ],
      "min": [
        -761.2625732421875,
        184.52850341796875,
        -806.4796142578125
      ],
      "type": "VEC3"
    },
    {
      "bufferView": 2,
      "byteOffset": 2276664,
      "componentType": 5126,
      "count": 65532,
      "max": [
        0.9999390244483948,
        0.9999513626098633,
        0.9999796152114868
      ],
      "min": [
        -0.9999988675117493,
        -0.9999812245368958,
        -0.999973714351654
      ],
      "type": "VEC3"
    },
    {
      "bufferView": 1,
      "byteOffset": 993520,
      "componentType": 5126,
      "count": 65532,
      "max": [
        1.9964359998703003,
        0.9988154172897339
      ],
      "min": [
        1.0013279914855957,
        0.0007680655107833445
      ],
      "type": "VEC2"
    },
    {
      "bufferView": 0,
      "byteOffset": 679560,
      "componentType": 5125,
      "count": 222690,
      "type": "SCALAR"
    },
    {
      "bufferView": 2,
      "byteOffset": 3063048,
      "componentType": 5126,
      "count": 36804,
      "max": [
        819.94287109375,
        1652.7650146484375,
        858.6527099609375
      ],
      "min": [
        -659.7778930664063,
        811.8787231445313,
        -856.5316772460938
      ],
      "type": "VEC3"
    },
    {
      "bufferView": 2,
      "byteOffset": 3504696,
      "componentType": 5126,
      "count": 36804,
      "max": [
        0.999907374382019,
        0.99991375207901,
        0.9999403357505798
      ],
      "min": [
        -0.9999232292175293,
        -0.9998421669006348,
        -0.9999068975448608
      ],
      "type": "VEC3"
    },
    {
      "bufferView": 1,
      "byteOffset": 1517776,
      "componentType": 5126,
      "count": 36804,
      "max": [
        1.9964359998703003,
        0.9972751140594482
      ],
      "min": [
        1.8934379816055298,
        0.7466120719909668
      ],
      "type": "VEC2"
    },
    {
      "bufferView": 0,
      "byteOffset": 1570320,
      "componentType": 5125,
      "count": 115626,
      "type": "SCALAR"
    },
    {
      "bufferView": 2,
      "byteOffset": 3946344,
      "componentType": 5126,
      "count": 62882,
      "max": [
        719.742919921875,
        1565.2879638671875,
        944.2269287109375
      ],
      "min": [
        -670.256103515625,
        -0.1177826002240181,
        -731.1865844726563
      ],
      "type": "VEC3"
    },
    {
      "bufferView": 2,
      "byteOffset": 4700928,
      "componentType": 5126,
      "count": 62882,
      "max": [
        0.9999001026153564,
        1.0,
        0.9999863505363464
      ],
      "min": [
        -0.9999305009841919,
        -1.0,
        -1.0
      ],
      "type": "VEC3"
    },
    {
      "bufferView": 1,
      "byteOffset": 1812208,
      "componentType": 5126,
      "count": 62882,
      "max": [
        0.9975004196166992,
        0.99755859375
      ],
      "min": [
        0.0024414060171693563,
        0.0024414060171693563
      ],
      "type": "VEC2"
    },
    {
      "bufferView": 0,
      "byteOffset": 2032824,
      "componentType": 5125,
      "count": 290814,
      "type": "SCALAR"
    }
  ],
  "asset": {
    "extras": {
      "author": "local.yany (https://sketchfab.com/local.yany)",
      "license": "CC-BY-4.0 (http://creativecommons.org/licenses/by/4.0/)",
      "source": "https://sketchfab.com/3d-models/tree-020074304f4f435aad0d86d478cb0a9d",
      "title": "Tree"
    },
    "generator": "Sketchfab-16.72.0",
    "version": "2.0"
  },
  "bufferViews": [
    {
      "buffer": 0,
      "byteLength": 3196080,
      "name": "floatBufferViews",
      "target": 34963
    },
    {
      "buffer": 0,
      "byteLength": 2315264,
      "byteOffset": 3196080,
      "byteStride": 8,
      "name": "floatBufferViews",
      "target": 34962
    },
    {
      "buffer": 0,
      "byteLength": 5455512,
      "byteOffset": 5511344,
      "byteStride": 12,
      "name": "floatBufferViews",
      "target": 34962
    }
  ],
  "buffers": [
    {
      "byteLength": 10966856,
      "uri": "scene.bin"
    }
  ],
  "images": [
    {
      "uri": "textures/XI_SoG_Tree_L_Mat_baseColor.png"
    },
    {
      "uri": "textures/XI_SoG_Tree_Mat02_baseColor.jpeg"
    },
    {
      "uri": "textures/XI_SoG_Tree_Mat01_baseColor.jpeg"
    }
  ],
  "materials": [
    {
      "alphaMode": "BLEND",
      "doubleSided": true,
      "name": "XI_SoG_Tree_L_Mat",
      "pbrMetallicRoughness": {
        "baseColorTexture": {
          "index": 0
        },
        "metallicFactor": 0.0,
        "roughnessFactor": 0.15085760261364606
      }
    },
    {
      "doubleSided": true,
      "name": "XI_SoG_Tree_Mat02",
      "pbrMetallicRoughness": {
        "baseColorTexture": {
          "index": 1
        },
        "metallicFactor": 0.0,
        "roughnessFactor": 0.9577051494623774
      }
    },
    {
      "doubleSided": true,
      "name": "XI_SoG_Tree_Mat01",
      "pbrMetallicRoughness": {
        "baseColorTexture": {
          "index": 2
        },
        "metallicFactor": 0.0,
        "roughnessFactor": 0.0
      }
    }
  ],
  "meshes": [
    {
      "name": "XI_SoG_Tree.Shape_XI_SoG_Tree_L_Mat_0",
      "primitives": [
        {
          "attributes": {
            "NORMAL": 1,
            "POSITION": 0,
            "TEXCOORD_0": 2,
            "TEXCOORD_1": 3
          },
          "indices": 4,
          "material": 0,
          "mode": 4
        }
      ]
    },
    {
      "name": "XI_SoG_Tree.Shape_XI_SoG_Tree_Mat02_0",
      "primitives": [
        {
          "attributes": {
            "NORMAL": 6,
            "POSITION": 5,
            "TEXCOORD_0": 7
          },
          "indices": 8,
          "material": 1,
          "mode": 4
        }
      ]
    },
    {
      "name": "XI_SoG_Tree.Shape_XI_SoG_Tree_Mat02_0",
      "primitives": [
        {
          "attributes": {
            "NORMAL": 10,
            "POSITION": 9,
            "TEXCOORD_0": 11
          },
          "indices": 12,
          "material": 1,
          "mode": 4
        }
      ]
    },
    {
      "name": "XI_SoG_Tree.Shape_XI_SoG_Tree_Mat01_0",
      "primitives": [
        {
          "attributes": {
            "NORMAL": 14,
            "POSITION": 13,
            "TEXCOORD_0": 15
          },
          "indices": 16,
          "material": 2,
          "mode": 4
        }
      ]
    }
  ],
  "nodes": [
    {
      "children": [
        1
      ],
      "matrix": [
        1.0,
        0.0,
        0.0,
        0.0,
        0.0,
        2.220446049250313e-16,
        -1.0,
        0.0,
        0.0,
        1.0,
        2.220446049250313e-16,
        0.0,
        0.0,
        0.0,
        0.0,
        1.0
      ],
      "name": "Sketchfab_model"
    },
    {
      "children": [
        2
      ],
      "matrix": [
        0.009999999776482582,
        0.0,
        0.0,
        0.0,
        0.0,
        0.0,
        0.009999999776482582,
        0.0,
        0.0,
        -0.009999999776482582,
        0.0,
        0.0,
        0.0,
        0.0,
        0.0,
        1.0
      ],
      "name": "Tree.fbx"
    },
    {
      "children": [
        3
      ],
      "name": "RootNode"
    },
    {
      "children": [
        4
      ],
      "name": "XI_SoG_Tree"
    },
    {
      "children": [
        5,
        6,
        7,
        8
      ],
      "name": "XI_SoG_Tree.Shape"
    },
    {
      "mesh": 0,
      "name": "XI_SoG_Tree.Shape_XI_SoG_Tree_L_Mat_0"
    },
    {
      "mesh": 1,
      "name": "XI_SoG_Tree.Shape_XI_SoG_Tree_Mat02_0"
    },
    {
      "mesh": 2,
      "name": "XI_SoG_Tree.Shape_XI_SoG_Tree_Mat02_0"
    },
    {
      "mesh": 3,
      "name": "XI_SoG_Tree.Shape_XI_SoG_Tree_Mat01_0"
    }
  ],
  "samplers": [
    {
      "magFilter": 9729,
      "minFilter": 9987,
      "wrapS": 10497,
      "wrapT": 10497
    }
  ],
  "scene": 0,
  "scenes": [
    {
      "name": "Sketchfab_Scene",
      "nodes": [
        0
      ]
    }
  ],
  "textures": [
    {
      "sampler": 0,
      "source": 0
    },
    {
      "sampler": 0,
      "source": 1
    },
    {
      "sampler": 0,
      "source": 2
    }
  ]
}
